# xmcd
#
# Track frame offsets: 
#        150
#        11712
#        25100
#        36103
#        49417
#        61387
#        74191
#        83759
#        97874
#        114753
#        129930
#        145662
#        160210
#        172009
#        185366
#
# Disc length: 2600 seconds
#
# Revision: 0
# Processed by: cddbd v1.5.2PL0 Copyright (c) Steve Scherf et al.
# Submitted via: ExactAudioCopyFreeDBPlugin 1.0
#
DISCID=c40a260f
DTITLE=Big Tom - Lonesome At Your Table
DYEAR=1900
DGENRE=
TTITLE0=I Wish I had a Nickel
TTITLE1=Dont't Be angry
TTITLE2=Geisha Girl
TTITLE3=Holding Things Together
TTITLE4=Blackboard Of My Heart
TTITLE5=Irene Goodnight Irene
TTITLE6=Lonesome At Your Table
TTITLE7=I Miss A Lot Of Trains
TTITLE8=Old Rustic Bridge By The Mill
TTITLE9=Little Sea Shell
TTITLE10=Second Handed Flowers
TTITLE11=Shopping For Dresses
TTITLE12=Tears On Her Bridal Bouquet
TTITLE13=I'm Thinking Tonight Of My Blue Eyes
TTITLE14=Magnificent Seven (instrumental)
EXTD=
EXTT0=
EXTT1=
EXTT2=
EXTT3=
EXTT4=
EXTT5=
EXTT6=
EXTT7=
EXTT8=
EXTT9=
EXTT10=
EXTT11=
EXTT12=
EXTT13=
EXTT14=
PLAYORDER=
